<svg id="Layer_1" data-name="Layer 1" xmlns="http://www.w3.org/2000/svg" viewBox="0 0 74 38"><defs><style>.cls-1{fill:none;stroke:#000;stroke-linecap:round;stroke-linejoin:round;stroke-width:2px;}</style></defs><title>architecture-wind</title><path class="cls-1" d="M41.33,16.23c4.45,0,8.06-3.19,8.06-7.12S45.78,2,41.33,2s-8.06,3.19-8.06,7.12a6.39,6.39,0,0,0,.63,2.77" transform="translate(-0.39 -1)"/><path class="cls-1" d="M49.46,28.43c3,0,5.42,2.14,5.42,4.79S52.46,38,49.46,38,44,35.86,44,33.21a4.29,4.29,0,0,1,.43-1.86" transform="translate(-0.39 -1)"/><path class="cls-1" d="M49.46,28.43H8.29c-3.81,0-6.9-2.73-6.9-6.1h0c0-3.37,3.09-6.1,6.9-6.1h33" transform="translate(-0.39 -1)"/><path class="cls-1" d="M65.33,22.39c4.45,0,8.06-3.19,8.06-7.12s-3.61-7.12-8.06-7.12-8.06,3.19-8.06,7.12A6.39,6.39,0,0,0,57.9,18" transform="translate(-0.39 -1)"/><line class="cls-1" x1="64.94" y1="21.39" x2="9.28" y2="21.39"/></svg>