<svg id="Layer_1" data-name="Layer 1" xmlns="http://www.w3.org/2000/svg" viewBox="0 0 74 74"><defs><style>.cls-1{fill:none;stroke:#000;stroke-linecap:round;stroke-linejoin:round;stroke-width:2px;}</style></defs><title>box-image</title><polyline class="cls-1" points="13.01 21.09 36.99 34.49 36.99 73 13.01 59.6 13.01 34.44"/><polyline class="cls-1" points="60.97 21.09 36.99 34.49 36.99 73 60.97 59.6 60.97 34.81"/><polyline class="cls-1" points="60.97 21.09 36.99 7.7 13.01 21.09"/><line class="cls-1" x1="41.51" y1="61.86" x2="50.1" y2="57.06"/><line class="cls-1" x1="45.57" y1="55.8" x2="51.62" y2="52.42"/><line class="cls-1" x1="41.51" y1="58.07" x2="43.37" y2="57.03"/><polyline class="cls-1" points="36.99 34.49 49.02 41.19 73 27.79 61.01 21.09"/><polyline class="cls-1" points="37.01 34.49 24.98 41.19 1 27.79 12.99 21.09"/><polyline class="cls-1" points="36.99 7.7 49.02 1 73 14.4 61.01 21.09"/><polyline class="cls-1" points="37.01 7.7 24.98 1 1 14.4 12.99 21.09"/></svg>