<svg id="Layer_1" data-name="Layer 1" xmlns="http://www.w3.org/2000/svg" viewBox="0 0 74 74"><defs><style>.cls-1{fill:none;stroke:#000;stroke-linecap:round;stroke-linejoin:round;stroke-width:2px;}</style></defs><title>brand-paintbrush</title><rect class="cls-1" x="28.45" y="37.72" width="2.73" height="15.05" rx="1.36" ry="1.36" transform="translate(-23.7 33.71) rotate(-45)"/><path class="cls-1" d="M32.33,49.68l-7-7L3.4,63.21a6,6,0,0,0-.28,8.64l.09.09a6,6,0,0,0,8.64-.28Z" transform="translate(-0.44 -0.62)"/><path class="cls-1" d="M56,48.61,26.45,19.06l-5.73,5.73a6.67,6.67,0,0,0,0,9.43L40.84,54.34a6.67,6.67,0,0,0,9.43,0Z" transform="translate(-0.44 -0.62)"/><rect class="cls-1" x="37.46" y="4.91" width="25.73" height="39.66" transform="translate(-3.19 42.21) rotate(-45)"/><line class="cls-1" x1="48.07" y1="4.12" x2="36.5" y2="15.68"/><line class="cls-1" x1="51.19" y1="7.23" x2="47.58" y2="10.84"/><line class="cls-1" x1="54.3" y1="10.35" x2="48.22" y2="16.43"/><line class="cls-1" x1="57.42" y1="13.46" x2="48.81" y2="22.08"/><line class="cls-1" x1="60.54" y1="16.58" x2="58.13" y2="18.98"/><line class="cls-1" x1="63.65" y1="19.7" x2="50.46" y2="32.89"/><line class="cls-1" x1="66.77" y1="22.81" x2="58.52" y2="31.06"/><line class="cls-1" x1="69.88" y1="25.93" x2="63.8" y2="32.01"/></svg>