<svg id="Layer_1" data-name="Layer 1" xmlns="http://www.w3.org/2000/svg" viewBox="0 0 85 76"><defs><style>.cls-1{fill:none;stroke:#000;stroke-linecap:round;stroke-linejoin:round;stroke-width:4px;}</style></defs><title>challenge-image</title><line class="cls-1" x1="15.83" y1="17.1" x2="40.92" y2="39.41"/><line class="cls-1" x1="66.01" y1="61.71" x2="40.92" y2="39.41"/><path class="cls-1" d="M52.27,26.16a35.08,35.08,0,0,0-11.71-6.63,80.09,80.09,0,0,0-14.76-3.41c-4.88-.78-9.86-1.19-14.26-2.44A9.82,9.82,0,0,1,8.7,12.38a7.27,7.27,0,0,1-1.95-2.22A4.27,4.27,0,0,1,6.28,8.7l0,0a4.48,4.48,0,0,0,5.81,0,3.37,3.37,0,0,0,0-5.17,4.48,4.48,0,0,0-5.81,0A3.69,3.69,0,0,0,6,3.85H6L6,3.93a3.65,3.65,0,0,0-.35.47A7.36,7.36,0,0,0,4.4,7.18a6.28,6.28,0,0,0,.36,3.7A9.09,9.09,0,0,0,7,14a12,12,0,0,0,3.5,2A53.78,53.78,0,0,0,17.81,18L25,19.6a74,74,0,0,1,13.46,4.19,30.35,30.35,0,0,1,7.65,4.72h0l8.07,7.18H54.1a27,27,0,0,1,5.13,6.6,56.26,56.26,0,0,1,4.72,12l1.79,6.37A40.33,40.33,0,0,0,68,67.07a9.36,9.36,0,0,0,5.71,5.13,8.83,8.83,0,0,0,4.16.32A9.51,9.51,0,0,0,81,71.44a4.2,4.2,0,0,0,.53-.31l.09-.05h0a4,4,0,0,0,.33-.24,3.37,3.37,0,0,0,0-5.17,4.48,4.48,0,0,0-5.81,0,3.37,3.37,0,0,0,0,5.17l0,0a5.74,5.74,0,0,1-1.64-.43,7.92,7.92,0,0,1-2.5-1.73,8,8,0,0,1-1.46-2.53c-1.41-3.92-1.87-8.34-2.75-12.68A58.9,58.9,0,0,0,64,40.37,30.28,30.28,0,0,0,56.56,30h0l-4.29-3.81Z" transform="translate(-0.19 -0.48)"/><path class="cls-1" d="M66.72,8a23.93,23.93,0,0,0,8.56,1.55A17.25,17.25,0,0,0,77,17.12,19.16,19.16,0,0,1,83.19,2.48C76.38,8.54,66.72,8,66.72,8Z" transform="translate(-0.19 -0.48)"/><line class="cls-1" x1="75.09" y1="9.03" x2="2.95" y2="73.16"/><polygon class="cls-1" points="11.04 58.33 2 66.36 10.59 66.36 10.59 74 19.63 65.97 19.63 58.33 11.04 58.33"/></svg>