<svg id="Layer_1" data-name="Layer 1" xmlns="http://www.w3.org/2000/svg" viewBox="0 0 55 55"><defs><style>.cls-1{fill:none;stroke:#000;stroke-linecap:round;stroke-linejoin:round;}</style></defs><title>culture</title><circle class="cls-1" cx="27.5" cy="27.5" r="27"/><path class="cls-1" d="M38.87,6.33a1.06,1.06,0,0,0-.25.2L37.54,7.68h-.91a1.06,1.06,0,0,0-.42.09l-.9.39a1.06,1.06,0,0,0-.53,1.43l.24.49a1.06,1.06,0,0,1-.37,1.35l-.58.38a1.06,1.06,0,0,1-.58.17H31.61a1.06,1.06,0,0,0-.71.27l-1.39,1.24a1.06,1.06,0,0,0-.35.79v1.44a1.06,1.06,0,0,0,.54.92,1.06,1.06,0,0,1,.23,1.67L28.74,19.5,26.68,23a1.62,1.62,0,0,0-.22.69l-.32,3.87a1.62,1.62,0,0,0,.58,1.38l3.45,2.88a1.62,1.62,0,0,0,1.53.3l4-1.28,1.41,2.32s1.2,3.8,1.41,4,0,.51-.19,1A7.65,7.65,0,0,0,38.46,43L39.51,46h0a1.62,1.62,0,0,0,2.55.44l1.6-1.5,3.77-6.36a1.69,1.69,0,0,0,.24-.86V35.1a1.69,1.69,0,0,1,.32-1l2.52-3.48a1.69,1.69,0,0,0,.27-1.42l-.23-.9a1.69,1.69,0,0,1,.83-1.92,1.69,1.69,0,0,0,.84-1.08l.45-1.81,2.26,2.56A26.92,26.92,0,0,0,44.11,6.21l-4.25-.43Zm1.84,11.15h0a.32.32,0,0,1,.42-.24l1.63.57.26.06,3.35.4a1.24,1.24,0,0,1,.34,2.38l-.85.36a1.24,1.24,0,0,1-.67.09l-4.07-.6a1.24,1.24,0,0,1-.83-.5l-2.19-3a1.24,1.24,0,0,0-.91-.51l-2.8-.22a1.25,1.25,0,0,0-.39,0l-2.1.5,1.83-2.11a1.24,1.24,0,0,1,1.5-.29l3.44,1.76a.32.32,0,0,1,.18.29v.66a.32.32,0,0,0,.23.31l1.21.35A.32.32,0,0,0,40.72,17.48Z" transform="translate(-0.52 -0.35)"/><path class="cls-1" d="M6.55,40.74A12.6,12.6,0,0,1,2.9,30.88L1.08,29h0A26.84,26.84,0,0,0,5.79,43.17l1.3.73C6.88,42.68,6.69,41.56,6.55,40.74Z" transform="translate(-0.52 -0.35)"/><path class="cls-1" d="M15.47,47.74l.74-2.06a1,1,0,0,0,0-.71L15.82,44A1,1,0,0,1,17,42.7l1.07.3a1,1,0,0,0,1.18-1.37l-.69-1.55a1,1,0,0,1,0-.88l1.57-2.95a1,1,0,0,0-.51-1.4l-4.91-2a1,1,0,0,1-.62-.77l-.19-1.21a1,1,0,0,0-.5-.72l-5-2.74a1,1,0,0,0-.8-.07l-.84.28A1,1,0,0,1,5.59,27L4.45,23.88a1,1,0,0,1,.45-1.21L7,21.49A1,1,0,0,0,7.39,21l1.32-3a1,1,0,0,1,.56-.53L12.5,16.3a1,1,0,0,0,.65-.94,1,1,0,0,1,1.62-.79l.87.68a1,1,0,0,0,1.54-1.19L15.7,10.67a1,1,0,0,1,.41-1.26L16.83,9a1,1,0,0,0-.08-1.77L16.19,7,19,6.46a1,1,0,0,1,1.14,1.23l-.1.42a1,1,0,0,0,1.48,1.1l2.39-1.42a1,1,0,0,1,.41-.14l3.64-.36a1,1,0,0,0,.7-.39l2.61-3.45L28.58.88,28,.85A27,27,0,0,0,1.32,24a3.3,3.3,0,0,1,.81.41l4.2,4.35a2,2,0,0,1,.52,1.68c0,.19-.72,4.93,2.75,7.73a2,2,0,0,1,.7,1.21c.53,3.31,1.29,7.85,1.8,10.21a26.94,26.94,0,0,0,4.66,2.74l-1.3-4A1,1,0,0,1,15.47,47.74Z" transform="translate(-0.52 -0.35)"/></svg>