<svg id="Layer_1" data-name="Layer 1" xmlns="http://www.w3.org/2000/svg" viewBox="0 0 58 85"><defs><style>.cls-1{fill:none;stroke:#000;stroke-linecap:round;stroke-linejoin:round;stroke-width:4px;}</style></defs><title>lightbulb</title><rect class="cls-1" x="17" y="64.12" width="24" height="12.64"/><path class="cls-1" d="M41.69,65.31c0-11,6-15.57,6-15.57a27,27,0,1,0-36,0h0s6,4.6,6,15.57" transform="translate(-0.69 -0.5)"/><path class="cls-1" d="M23.94,7.37A22.93,22.93,0,0,0,7.23,33.91" transform="translate(-0.69 -0.5)"/><path class="cls-1" d="M17.69,77.26l8.05,5.08a7.5,7.5,0,0,0,8,0l7.9-5.06" transform="translate(-0.69 -0.5)"/><line class="cls-1" x1="17" y1="70.44" x2="41" y2="70.44"/><ellipse class="cls-1" cx="29.08" cy="40.14" rx="4.22" ry="4.23"/><ellipse class="cls-1" cx="18.47" cy="46.22" rx="3.09" ry="3.1"/><ellipse class="cls-1" cx="39.53" cy="46.22" rx="3.09" ry="3.1"/><line class="cls-1" x1="25.8" y1="64.12" x2="21.56" y2="46.01"/><line class="cls-1" x1="30.9" y1="64.12" x2="36.45" y2="45.92"/><line class="cls-1" x1="27.33" y1="43.99" x2="38.05" y2="48.94"/><line class="cls-1" x1="30.84" y1="43.99" x2="19.78" y2="49.03"/></svg>