<svg id="Layer_1" data-name="Layer 1" xmlns="http://www.w3.org/2000/svg" viewBox="0 0 28 28"><defs><style>.cls-1{fill:none;stroke:#000;stroke-linecap:round;stroke-linejoin:round;}</style></defs><title>linkedin</title><path class="cls-1" d="M5.09.94A4.08,4.08,0,0,0,1,5V23.87a4.08,4.08,0,0,0,4.08,4.08H23.94A4.08,4.08,0,0,0,28,23.87V5A4.08,4.08,0,0,0,23.94.94ZM7.18,5.52a2.12,2.12,0,1,1,0,4.22h0a2.12,2.12,0,1,1,.05-4.22Zm12,5.6c2.67,0,4.68,1.74,4.68,5.49v7H19.77V17.08c0-1.64-.6-2.76-2.06-2.76a2.22,2.22,0,0,0-2.09,1.48,2.87,2.87,0,0,0-.13,1v6.82H11.44s0-11.06,0-12.21h4.06v1.72a4,4,0,0,1,3.65-2Zm-14,.28H9.18V23.61H5.13Z" transform="translate(-0.51 -0.44)"/></svg>