<svg id="Layer_1" data-name="Layer 1" xmlns="http://www.w3.org/2000/svg" viewBox="0 0 65 65"><defs><style>.cls-1{fill:none;stroke:#000;stroke-linecap:round;stroke-linejoin:round;stroke-width:2px;}</style></defs><title>logo-pencil</title><polyline class="cls-1" points="49.18 4.43 7.41 46.2 18.8 57.59 60.57 15.82"/><path class="cls-1" d="M8,46.82,19.35,58.21l-5.12,5.12a4.4,4.4,0,0,1-6.23,0L2.85,58.16a4.4,4.4,0,0,1,0-6.23Z" transform="translate(-0.56 -0.61)"/><polyline class="cls-1" points="60.57 15.82 64 1 49.18 4.43"/><path class="cls-1" d="M13.66,52.51,54.73,11.44a4,4,0,0,1,5.69,0h0a4,4,0,0,1,1.18,2.91" transform="translate(-0.56 -0.61)"/><path class="cls-1" d="M53.27,12.91l1.47-1.47a4,4,0,0,0,0-5.69h0a4,4,0,0,0-3-1.18" transform="translate(-0.56 -0.61)"/><line class="cls-1" x1="63.19" y1="4.5" x2="60.5" y2="1.81"/></svg>