<svg id="Layer_1" data-name="Layer 1" xmlns="http://www.w3.org/2000/svg" viewBox="0 0 58 76"><defs><style>.cls-1{fill:none;stroke:#000;stroke-linecap:round;stroke-linejoin:round;stroke-width:4px;}</style></defs><title>magnifying-glass</title><path class="cls-1" d="M37.48,16c-4-6.81-13.29-9.36-20.74-5.7s-10.23,12.16-6.23,19S23.81,38.67,31.25,35,41.49,22.84,37.48,16Z" transform="translate(-0.68 -1.16)"/><path class="cls-1" d="M42.76,13.42C37.18,3.94,24.26.39,13.9,5.49S-.35,22.42,5.23,31.9s18.5,13,28.87,7.93S48.34,22.9,42.76,13.42Z" transform="translate(-0.68 -1.16)"/><line class="cls-1" x1="40.04" y1="46.41" x2="35.04" y2="37.9"/><line class="cls-1" x1="31.82" y1="39.49" x2="36.82" y2="48"/><path class="cls-1" d="M39.11,48.36l-2.35,1.16a3.42,3.42,0,0,0-1.37,5.18L49.54,73.6a4.14,4.14,0,0,0,5.08,1.13h0" transform="translate(-0.68 -1.16)"/><path class="cls-1" d="M39.11,48.36l2.35-1.16A4.07,4.07,0,0,1,46.94,49l9.45,21.22a3.45,3.45,0,0,1-1.77,4.5h0" transform="translate(-0.68 -1.16)"/><line class="cls-1" x1="38.98" y1="54.5" x2="46.94" y2="65.2"/><line class="cls-1" x1="44.35" y1="50.48" x2="45.91" y2="53.99"/></svg>