<svg id="Layer_1" data-name="Layer 1" xmlns="http://www.w3.org/2000/svg" viewBox="0 0 65 74"><defs><style>.cls-1{fill:none;stroke:#000;stroke-linecap:round;stroke-linejoin:round;stroke-width:2px;}</style></defs><title>moneybag</title><path class="cls-1" d="M21.06,17.12,17,7.67c-1.39-3.26,2.44-6.29,5.6-4.44l5.69,3.34a10.54,10.54,0,0,0,10.47.07L45.29,3c3.16-1.8,6.93,1.24,5.55,4.47l-4.14,9.7h0c8.72,9,18.68,21.58,18.68,32.3,0,19.07-14.1,25-31.5,25s-31.5-5.92-31.5-25C2.38,38.7,12.34,26.1,21.06,17.12Z" transform="translate(-1.38 -1.42)"/><path class="cls-1" d="M37.06,42l-3.8-1.12c-1.39-.49-1.39-.81-1.39-1.06a1.15,1.15,0,0,1,.4-.81,1.12,1.12,0,0,1,.29-.23,2.89,2.89,0,0,1,.38-.18h0l.28-.12a5,5,0,0,1,2.59.06h0l.29.09.14.05.06,0,.1,0a3.5,3.5,0,0,1,1.2.94,2.11,2.11,0,0,0,1.57.72,2,2,0,0,0,1.33-.49l.64-.55a1.8,1.8,0,0,0,.2-2.55,8.33,8.33,0,0,0-4.44-2.65v-.59a1.93,1.93,0,0,0-2-1.87h-.81a1.93,1.93,0,0,0-2,1.87v.54c-3.09.73-5.11,3-5.11,5.7,0,3.46,2.71,4.75,4.78,5.42l4,1.16c1.32.5,1.56.91,1.56,1.55a1.91,1.91,0,0,1-.23.85c0,.06-.09.25-.59.5a5.06,5.06,0,0,1-.68.26,4.78,4.78,0,0,1-1.37.2A5.07,5.07,0,0,1,30.67,48a2.14,2.14,0,0,0-1.55-.69,2,2,0,0,0-1.3.47l-.66.55a1.8,1.8,0,0,0-.25,2.55,9.13,9.13,0,0,0,5.23,3v.47a1.93,1.93,0,0,0,2,1.87h.81a1.93,1.93,0,0,0,2-1.87V53.9c3.87-.85,5.26-3.68,5.26-5.94C42.17,43.73,38.35,42.43,37.06,42Z" transform="translate(-1.38 -1.42)"/></svg>