<svg id="Layer_1" data-name="Layer 1" xmlns="http://www.w3.org/2000/svg" viewBox="0 0 56 74"><defs><style>.cls-1{fill:none;stroke:#000;stroke-linecap:round;stroke-linejoin:round;stroke-width:2px;}</style></defs><title>my-role-image</title><path class="cls-1" d="M40.58,42.41V22.8s-6.47.71-10.76-.46a14.71,14.71,0,0,1-6.77-4c-4.28,0-6.68,4.48-6.68,4.48V42.35A12.5,12.5,0,0,1,1.89,54.48l-.57-.1A28.12,28.12,0,0,0,7.59,35.61L7.12,23.4A20,20,0,0,1,21.27,3.69l9.27-2.13a5.25,5.25,0,0,1,5.68,2.36,3.5,3.5,0,0,1,.47.92A17.49,17.49,0,0,1,49.55,22.17L49,35.61a28.12,28.12,0,0,0,6.28,18.77,10.48,10.48,0,0,1-5.1-.08A12.25,12.25,0,0,1,40.58,42.41Z" transform="translate(-0.31 -0.42)"/><path class="cls-1" d="M40.59,42.77A14.17,14.17,0,0,1,16.51,43" transform="translate(-0.31 -0.42)"/><path class="cls-1" d="M25.56,52.32h-7.1A13.94,13.94,0,0,0,4.26,66h0s8.31,7.43,24,7.43S52.55,66,52.55,66h0A13.94,13.94,0,0,0,38.36,52.32h-7.1" transform="translate(-0.31 -0.42)"/><polyline class="cls-1" points="30.94 49.02 30.94 51.9 28.09 54.64 25.25 51.9 25.25 49.02"/></svg>