<svg id="Layer_1" data-name="Layer 1" xmlns="http://www.w3.org/2000/svg" viewBox="0 0 74 74"><defs><style>.cls-1{fill:none;stroke:#000;stroke-linecap:round;stroke-linejoin:round;stroke-width:2px;}</style></defs><title>paintbucket</title><path class="cls-1" d="M1,1H60.81a0,0,0,0,1,0,0V63.51A9.49,9.49,0,0,1,51.32,73H10.49A9.49,9.49,0,0,1,1,63.51V1A0,0,0,0,1,1,1Z"/><path class="cls-1" d="M32.23,18.43l36,23.48c5.59,3.65,7.43,11.69,4.09,17.87h0a11.48,11.48,0,0,1-9.63,6.27" transform="translate(-0.97 -0.5)"/><ellipse class="cls-1" cx="31.26" cy="17.93" rx="5.37" ry="5.98"/><path class="cls-1" d="M62.67,21.61" transform="translate(-0.97 -0.5)"/><path class="cls-1" d="M2,1.5h3.4A3.54,3.54,0,0,1,8.71,5.21V26.29A3.54,3.54,0,0,0,12,30h.57a3.54,3.54,0,0,0,3.33-3.71V18.11a3.54,3.54,0,0,1,3.33-3.71h1.06a3.54,3.54,0,0,1,3.33,3.71V49.69a4.36,4.36,0,0,0,4.11,4.58h0a4.36,4.36,0,0,0,4.11-4.58V36.48a4.27,4.27,0,0,1,4-4.48h0a4.27,4.27,0,0,1,4,4.48v.36a5.15,5.15,0,0,0,4.85,5.41h0a5.15,5.15,0,0,0,4.85-5.41V14.5A3.54,3.54,0,0,1,53,10.79h0a3.54,3.54,0,0,1,3.33,3.71h0a6.9,6.9,0,0,0,5.49,7" transform="translate(-0.97 -0.5)"/></svg>