<svg id="Layer_1" data-name="Layer 1" xmlns="http://www.w3.org/2000/svg" viewBox="0 0 74 56"><defs><style>.cls-1{fill:none;stroke:#000;stroke-linecap:round;stroke-linejoin:round;stroke-width:2px;}</style></defs><title>people</title><path class="cls-1" d="M28.62,33.8a10.18,10.18,0,0,0,1,1,11.82,11.82,0,0,0,8,3h.25a11.81,11.81,0,0,0,8-3,9,9,0,0,0,3-6.59V28s3.29-1.51,3.29-4.52-2.08-2.71-2.08-2.71a4,4,0,0,0,2.08-3.38V10.06c0-3.41-3.17-6.18-7.09-6.18a2.77,2.77,0,0,0-2.94-2.56h-.62a29.36,29.36,0,0,0-7.68,1c-7.73,2.1-12,9.27-9.57,16l1,2.72s-2-.86-2,2.42c0,4.37,3.29,4.52,3.29,4.52l0,.22a8.74,8.74,0,0,0,2.06,5.6" transform="translate(-0.52 -0.33)"/><path class="cls-1" d="M48.89,28.22V15.1a23.9,23.9,0,0,1-8.09,0,17,17,0,0,1-6.63-3c-5.81,0-7.59,3.05-7.59,3.05V28" transform="translate(-0.52 -0.33)"/><path class="cls-1" d="M35.48,40.21H29.85c-6.21,0-11.25,4.39-11.25,9.8h0s6.59,5.32,19.06,5.32S56.87,50,56.87,50h0c0-5.41-5-9.8-11.25-9.8H40" transform="translate(-0.52 -0.33)"/><polyline class="cls-1" points="39.47 37.82 39.47 39.88 37.21 41.84 34.96 39.88 34.96 37.82"/><path class="cls-1" d="M23.6,15.07a14.14,14.14,0,0,1-2-.32,10.53,10.53,0,0,1-4.77-2.56c-3,0-4.71,2.85-4.71,2.85V27.49c0,4.74-4.83,8.48-10.21,7.73l-.4-.06a16.83,16.83,0,0,0,4.43-12l-.33-7.78c-.24-5.65,3.82-10.76,10-12.55l6.53-1.36a3.87,3.87,0,0,1,4,1.5,2.16,2.16,0,0,1,.33.58,13.84,13.84,0,0,1,2.61,1" transform="translate(-0.52 -0.33)"/><path class="cls-1" d="M26.58,30.36a10.72,10.72,0,0,1-5.92,1.73,10.14,10.14,0,0,1-8.43-4.19" transform="translate(-0.52 -0.33)"/><path class="cls-1" d="M28.61,33.89q-.49,0-1,0h-5" transform="translate(-0.52 -0.33)"/><path class="cls-1" d="M18.61,33.85h-5c-5.52,0-10,3.9-10,8.71h0s5.33,4.31,15.45,4.7" transform="translate(-0.52 -0.33)"/><polyline class="cls-1" points="22.09 31.69 22.09 33.52 20.09 35.26 18.08 33.52 18.08 31.69"/><path class="cls-1" d="M46.76,4a15.76,15.76,0,0,1,2.78-1.1l6.53-1.36a3.87,3.87,0,0,1,4,1.5,2.16,2.16,0,0,1,.33.58c5.55,1.45,9.29,6,9.07,11L69.1,23.2a16.83,16.83,0,0,0,4.43,12,8.14,8.14,0,0,1-3.59-.05c-4-.81-6.78-4-6.78-7.57V15a28.11,28.11,0,0,1-7.58-.29,11,11,0,0,1-3.39-1.48" transform="translate(-0.52 -0.33)"/><path class="cls-1" d="M63.15,27.76a10.11,10.11,0,0,1-8.53,4.33,10.71,10.71,0,0,1-6-1.76" transform="translate(-0.52 -0.33)"/><path class="cls-1" d="M56.43,47.24c9.85-.5,15.15-4.68,15.15-4.68h0c0-4.81-4.48-8.71-10-8.71h-5" transform="translate(-0.52 -0.33)"/><path class="cls-1" d="M52.56,33.85h-5l-.79,0" transform="translate(-0.52 -0.33)"/><polyline class="cls-1" points="56.05 31.69 56.05 33.52 54.05 35.26 52.04 33.52 52.04 31.69"/></svg>