<svg id="Layer_1" data-name="Layer 1" xmlns="http://www.w3.org/2000/svg" viewBox="0 0 83 56"><defs><style>.cls-1{fill:none;stroke:#000;stroke-linecap:round;stroke-linejoin:round;stroke-width:2px;}</style></defs><title>shake</title><path class="cls-1" d="M50,40.29l3,8.91A2.7,2.7,0,0,0,56.64,51h0a3.43,3.43,0,0,0,1.57-4.21l-3-8.91" transform="translate(-0.65 -0.88)"/><path class="cls-1" d="M45.23,44.07l2.08,6.14A2.7,2.7,0,0,0,50.95,52h0a3.43,3.43,0,0,0,1.57-4.21l-2.08-6.14" transform="translate(-0.65 -0.88)"/><path class="cls-1" d="M44,18.1,58.81,31,63,43a3.43,3.43,0,0,1-1.57,4.21h0a2.7,2.7,0,0,1-3.64-1.82l-2.08-6.14" transform="translate(-0.65 -0.88)"/><line class="cls-1" x1="20.61" y1="11.73" x2="37.11" y2="11.73"/><path class="cls-1" d="M22.42,37l-4.8-3.89a7.06,7.06,0,0,1-2.47-5.49h0l-2.41-1.36" transform="translate(-0.65 -0.88)"/><path class="cls-1" d="M45.33,44.38,47.2,49.9a3.43,3.43,0,0,1-1.57,4.21h0A2.7,2.7,0,0,1,42,52.29" transform="translate(-0.65 -0.88)"/><path class="cls-1" d="M63.65,10.6l-2.24,1.09h0a22,22,0,0,0-15.55-4h0a11.36,11.36,0,0,0-6.55,3.32L28,22.35h0a8.16,8.16,0,0,0,10.83.07L44.07,18,58.81,31l2.71,7.9L63,38a9.82,9.82,0,0,0,4.31-8.5h0l4.23-2.19" transform="translate(-0.65 -0.88)"/><path class="cls-1" d="M23.5,35l6.11-5.5a2.56,2.56,0,0,1,3.94.57h0a3.6,3.6,0,0,1-.49,4.55l-6.11,5.5A2.56,2.56,0,0,1,23,39.55h0A3.6,3.6,0,0,1,23.5,35Z" transform="translate(-0.65 -0.88)"/><path class="cls-1" d="M25.53,41.4l9-8.06a2.56,2.56,0,0,1,3.94.57h0a3.6,3.6,0,0,1-.49,4.55l-9,8.06A2.56,2.56,0,0,1,25,46h0A3.6,3.6,0,0,1,25.53,41.4Z" transform="translate(-0.65 -0.88)"/><path class="cls-1" d="M30.39,45.24l6.11-5.5a2.56,2.56,0,0,1,3.94.57h0A3.6,3.6,0,0,1,40,44.86l-6.11,5.5a2.56,2.56,0,0,1-3.94-.57h0A3.6,3.6,0,0,1,30.39,45.24Z" transform="translate(-0.65 -0.88)"/><path class="cls-1" d="M34.15,50.08l5.48-4.93a2.56,2.56,0,0,1,3.94.57h0a3.6,3.6,0,0,1-.49,4.55L37.6,55.2a2.56,2.56,0,0,1-3.94-.57h0A3.6,3.6,0,0,1,34.15,50.08Z" transform="translate(-0.65 -0.88)"/><polygon class="cls-1" points="71.7 27.78 61.89 7.75 72.19 1 82 21.03 71.7 27.78"/><polygon class="cls-1" points="22.26 9.08 10.59 27.72 1 19.68 12.68 1.04 22.26 9.08"/><path class="cls-1" d="M70.31,12.15A1.75,1.75,0,0,1,69,11.53,2.46,2.46,0,0,1,68.46,10,2.35,2.35,0,0,1,69,8.5a1.74,1.74,0,0,1,2.64,0,2.43,2.43,0,0,1,0,3.05A1.75,1.75,0,0,1,70.31,12.15Z" transform="translate(-0.65 -0.88)"/><path class="cls-1" d="M15,12.75a1.75,1.75,0,0,1-1.32-.65,2.25,2.25,0,0,1-.54-1.5,2.31,2.31,0,0,1,.54-1.53,1.76,1.76,0,0,1,2.64,0,2.41,2.41,0,0,1,.54,1.53,2.35,2.35,0,0,1-.54,1.5A1.78,1.78,0,0,1,15,12.75Z" transform="translate(-0.65 -0.88)"/></svg>