<svg id="Layer_1" data-name="Layer 1" xmlns="http://www.w3.org/2000/svg" viewBox="0 0 110 65"><defs><style>.cls-1{fill:none;stroke:#000;stroke-linecap:round;stroke-linejoin:round;stroke-width:2px;}</style></defs><title>storybook</title><path class="cls-1" d="M8.6,7.22q-3.17.58-6.3,1.32V61.35a132.86,132.86,0,0,1,54-1.32V53.16" transform="translate(-1.31 -0.89)"/><path class="cls-1" d="M56.31,54.15a105,105,0,0,0-47.7,0V4.64a105,105,0,0,1,47.7,0Z" transform="translate(-1.31 -0.89)"/><path class="cls-1" d="M104,7.22q3.17.58,6.3,1.32V61.35a132.86,132.86,0,0,0-54-1.32V53.16" transform="translate(-1.31 -0.89)"/><path class="cls-1" d="M56.31,54.15a105,105,0,0,1,47.7,0V4.64a105,105,0,0,0-47.7,0Z" transform="translate(-1.31 -0.89)"/><path class="cls-1" d="M56.31,59.36v4.78a133,133,0,0,0-51.48.75L2.31,61.35" transform="translate(-1.31 -0.89)"/><path class="cls-1" d="M56.31,59.36v4.78a133.08,133.08,0,0,1,49.87.41l4.13-3.2" transform="translate(-1.31 -0.89)"/></svg>