<svg id="Layer_1" data-name="Layer 1" xmlns="http://www.w3.org/2000/svg" viewBox="0 0 74 74"><defs><style>.cls-1{fill:none;stroke:#000;stroke-linecap:round;stroke-linejoin:round;stroke-width:2px;}</style></defs><title>summary-globe</title><path class="cls-1" d="M37.68,73.77a36,36,0,1,0-36-36" transform="translate(-0.68 -0.77)"/><path class="cls-1" d="M1.68,37.77a36,36,0,0,0,36,36" transform="translate(-0.68 -0.77)"/><path class="cls-1" d="M52.16,9.07a1.41,1.41,0,0,0-.33.26l-1.45,1.53H49.17a1.41,1.41,0,0,0-.56.12l-1.2.52a1.41,1.41,0,0,0-.71,1.91l.32.66a1.41,1.41,0,0,1-.5,1.8l-.77.5a1.41,1.41,0,0,1-.77.23H42.47a1.41,1.41,0,0,0-.94.36l-1.85,1.66a1.41,1.41,0,0,0-.47,1v1.92a1.41,1.41,0,0,0,.72,1.23A1.41,1.41,0,0,1,40.24,25l-1.59,1.59L35.9,31.27a2.17,2.17,0,0,0-.3.92l-.43,5.16a2.17,2.17,0,0,0,.77,1.84L40.55,43a2.17,2.17,0,0,0,2,.4l5.34-1.7,1.88,3.1s1.59,5.07,1.88,5.35c.1.1,0,.68-.25,1.4A10.21,10.21,0,0,0,51.6,58L53,61.9h0a2.17,2.17,0,0,0,3.4.59l2.14-2,5-8.47a2.26,2.26,0,0,0,.32-1.15V47.44a2.26,2.26,0,0,1,.43-1.32l3.36-4.64A2.26,2.26,0,0,0,68,39.58l-.31-1.19a2.26,2.26,0,0,1,1.11-2.56,2.26,2.26,0,0,0,1.12-1.44l.6-2.41,3,3.42A35.89,35.89,0,0,0,59.14,8.9l-5.66-.57Zm2.46,14.86h0a.43.43,0,0,1,.56-.32l2.17.76a1.67,1.67,0,0,0,.35.08l4.46.54a1.66,1.66,0,0,1,.46,3.17l-1.13.48a1.66,1.66,0,0,1-.9.12L55.17,28a1.66,1.66,0,0,1-1.1-.67l-2.92-4.05a1.66,1.66,0,0,0-1.22-.68l-3.73-.29a1.66,1.66,0,0,0-.51,0l-2.8.67,2.44-2.81a1.66,1.66,0,0,1,2-.39l4.59,2.34a.43.43,0,0,1,.23.38v.88a.43.43,0,0,0,.31.41l1.61.47A.43.43,0,0,0,54.62,23.94Z" transform="translate(-0.68 -0.77)"/><path class="cls-1" d="M1.76,39.29a35.79,35.79,0,0,0,6.29,18.9l1.74,1C9.5,57.54,9.25,56,9.07,55,4.34,50.55,4,44.49,4.19,41.8" transform="translate(-0.68 -0.77)"/><path class="cls-1" d="M22.68,70.46l-1.73-5.3a1.34,1.34,0,0,1,0-.88l1-2.74a1.34,1.34,0,0,0,0-.95l-.5-1.25A1.34,1.34,0,0,1,23,57.56l1.42.4A1.34,1.34,0,0,0,26,56.12l-.92-2.07a1.34,1.34,0,0,1,0-1.17L27.22,49a1.34,1.34,0,0,0-.68-1.87L20,44.46a1.33,1.33,0,0,1-.82-1l-.25-1.61a1.34,1.34,0,0,0-.67-1l-6.61-3.66a1.34,1.34,0,0,0-1.07-.1l-1.11.37a1.34,1.34,0,0,1-1.68-.81L6.26,32.47a1.33,1.33,0,0,1,.6-1.62l2.77-1.57a1.33,1.33,0,0,0,.56-.62l1.75-4a1.34,1.34,0,0,1,.75-.71L17,22.36a1.34,1.34,0,0,0,.86-1.25A1.34,1.34,0,0,1,20,20.06l1.16.91a1.34,1.34,0,0,0,2-1.58l-2-4.53a1.33,1.33,0,0,1,.55-1.68l1-.57a1.34,1.34,0,0,0-.1-2.35l-.75-.36,3.7-.65a1.34,1.34,0,0,1,1.53,1.64l-.14.56a1.34,1.34,0,0,0,2,1.47L32.17,11a1.33,1.33,0,0,1,.55-.18l4.86-.48a1.34,1.34,0,0,0,.93-.52L42,5.24,38.43,1.8c-.25,0-.5,0-.75,0A36,36,0,0,0,2.08,32.69" transform="translate(-0.68 -0.77)"/><path class="cls-1" d="M3.17,33.24,8.77,39a2.6,2.6,0,0,1,.69,2.23c0,.26-1,6.57,3.66,10.31a2.6,2.6,0,0,1,.93,1.61c.71,4.42,1.72,10.46,2.4,13.61a35.92,35.92,0,0,0,6.21,3.66" transform="translate(-0.68 -0.77)"/></svg>