<svg id="Layer_1" data-name="Layer 1" xmlns="http://www.w3.org/2000/svg" viewBox="0 0 56 65"><defs><style>.cls-1{fill:none;stroke:#000;stroke-linecap:round;stroke-linejoin:round;stroke-width:2px;}</style></defs><title>voice</title><path class="cls-1" d="M2.89,53,6,56.25a3.51,3.51,0,0,0,5.09,0L2.89,47.71A3.83,3.83,0,0,0,2.89,53Z" transform="translate(-0.4 -0.48)"/><path class="cls-1" d="M7,52l5,5.14a2.14,2.14,0,0,0,3.1,0l5.57-5.78C33.06,38.48,41.77,42,41.77,42L29.2,29,16.63,16s3.41,9-9,21.89L2,43.62a2.33,2.33,0,0,0,0,3.22Z" transform="translate(-0.4 -0.48)"/><path class="cls-1" d="M16.69,55.45l10.8,8.19A4.12,4.12,0,0,0,33,63.2h0a4.49,4.49,0,0,0-.52-6.66L22.74,49.3" transform="translate(-0.4 -0.48)"/><path class="cls-1" d="M25.25,47.14a3.77,3.77,0,0,1,3.62,1.07,4.11,4.11,0,0,1,0,5.67" transform="translate(-0.4 -0.48)"/><path class="cls-1" d="M15.88,12.37a2,2,0,0,0,0,2.81L42.65,42.93a1.87,1.87,0,0,0,2.71,0,2,2,0,0,0,0-2.81L18.59,12.37A1.87,1.87,0,0,0,15.88,12.37Z" transform="translate(-0.4 -0.48)"/><path class="cls-1" d="M26.85,20.94a7.33,7.33,0,0,1,8.48,1.57,8,8,0,0,1,1.51,8.78" transform="translate(-0.4 -0.48)"/><path class="cls-1" d="M33.24,1.52a20.49,20.49,0,0,1,16,6.31A22.05,22.05,0,0,1,55.4,23.18" transform="translate(-0.4 -0.48)"/><path class="cls-1" d="M33.24,7.4a15,15,0,0,1,12,4.58,16.09,16.09,0,0,1,4.47,11.2" transform="translate(-0.4 -0.48)"/><path class="cls-1" d="M44.09,23.37a10.14,10.14,0,0,0-2.82-7.24,9.4,9.4,0,0,0-8-2.84" transform="translate(-0.4 -0.48)"/></svg>