<svg id="Layer_1" data-name="Layer 1" xmlns="http://www.w3.org/2000/svg" viewBox="0 0 56 74"><defs><style>.cls-1{fill:none;stroke:#000;stroke-linecap:round;stroke-linejoin:round;stroke-width:2px;}</style></defs><title>wireframe-icon</title><polygon class="cls-1" points="1 73 55 73 55 16.72 40.29 1 1 1 1 73"/><polyline class="cls-1" points="40.29 1 40.29 16.72 55 16.72"/><g id="_3iaQmW.tif" data-name="3iaQmW.tif"><path class="cls-1" d="M29,53.81a3.62,3.62,0,0,0-1.66,1.92c-.38.9-.62,1.07-1.54.84s-2-.6-3-.87A1,1,0,0,1,22,54.53a6.25,6.25,0,0,0,.07-1.65,3.45,3.45,0,0,0-2.19-2.48,2.42,2.42,0,0,0-2.22,0c-1.19.59-1.43.51-2.13-.61-.42-.67-.81-1.36-1.16-2.06-.67-1.32-.61-1.56.58-2.39a3,3,0,0,0,1.29-3,2.76,2.76,0,0,0-2-2.59,6.16,6.16,0,0,1-.77-.35,1,1,0,0,1-.57-1.3c.25-.92.43-1.85.69-2.77.37-1.3.55-1.42,1.87-1.21a2.44,2.44,0,0,0,2.37-.83c1-1.14,1.72-2.34,1-4-.45-1-.3-1.24.59-1.81s1.62-.92,2.4-1.43a1.12,1.12,0,0,1,1.76.41c1,1.54,2.36,1.49,3.83,1.16A2.34,2.34,0,0,0,29.31,26a5.65,5.65,0,0,1,.73-1.2h.77c.9.27,1.81.51,2.71.81,1.25.42,1.34.52,1.16,1.88a2.81,2.81,0,0,0,.75,2.4,3.14,3.14,0,0,0,3.91,1c.69-.26,1.22-.23,1.61.52s1,1.72,1.45,2.62c.51,1.05.39,1.21-.49,2A3.49,3.49,0,0,0,41,37.47a4,4,0,0,0,.37,3.07,2.73,2.73,0,0,0,.89,1,14.22,14.22,0,0,0,1.55.83v1l-.28.94m-7.6-1.81a8.11,8.11,0,0,0,.21-1.77,7.71,7.71,0,0,0-7.46-7.81,7.77,7.77,0,0,0-.45,15.51" transform="translate(-0.71 -0.63)"/></g><g id="_3iaQmW.tif-2" data-name="3iaQmW.tif"><path class="cls-1" d="M46.42,51v.56c-.16.54-.31,1.09-.49,1.63-.25.75-.36.83-1.12.67a1.42,1.42,0,0,0-1.22.32,1.91,1.91,0,0,0-.6,2.49c.19.43.18.77-.27,1s-1,.63-1.58.9-.68.25-1-.31a1.41,1.41,0,0,0-.92-.68,1.94,1.94,0,0,0-2.39,1.26c-.22.53-.37.63-.9.49s-1.18-.35-1.78-.51a.56.56,0,0,1-.45-.68,3.66,3.66,0,0,0,0-1,2,2,0,0,0-1.28-1.45,1.42,1.42,0,0,0-1.3,0c-.7.35-.84.3-1.25-.36-.24-.39-.47-.79-.68-1.21-.39-.77-.36-.91.34-1.4A1.79,1.79,0,0,0,30.3,51a1.62,1.62,0,0,0-1.14-1.52,3.61,3.61,0,0,1-.45-.21.59.59,0,0,1-.33-.76c.14-.54.25-1.08.4-1.62.22-.76.32-.83,1.1-.71a1.43,1.43,0,0,0,1.39-.48,2,2,0,0,0,.58-2.34c-.26-.59-.18-.73.34-1.06s.95-.54,1.41-.84a.66.66,0,0,1,1,.24,1.83,1.83,0,0,0,2.24.68,1.37,1.37,0,0,0,1.09-1,3.31,3.31,0,0,1,.42-.7h.45c.53.16,1.06.3,1.59.47.73.24.78.3.68,1.1a1.65,1.65,0,0,0,.44,1.4,1.84,1.84,0,0,0,2.29.58c.4-.15.72-.14.94.3s.59,1,.85,1.53.23.71-.29,1.17a2,2,0,0,0-.55.85,2.35,2.35,0,0,0,.22,1.8,1.6,1.6,0,0,0,.52.56A8.32,8.32,0,0,0,46.42,51Zm-8.94,3.53A4.46,4.46,0,0,0,41.93,50a4.41,4.41,0,1,0-8.81,0A4.46,4.46,0,0,0,37.48,54.52Z" transform="translate(-0.71 -0.63)"/></g></svg>