<svg id="Layer_1" data-name="Layer 1" xmlns="http://www.w3.org/2000/svg" viewBox="0 0 65 65"><defs><style>.cls-1{fill:none;stroke:#000;stroke-linecap:round;stroke-linejoin:round;stroke-width:2px;}</style></defs><title>wrenches</title><path class="cls-1" d="M47.29,39.79l-21-21A12.75,12.75,0,0,0,10.81,1.94l8,8-1.66,7-7,1.66-8-8A12.75,12.75,0,0,0,19.06,26L40,47a12.75,12.75,0,0,0,15.5,16.87l-8-8,1.66-7,7-1.66,8,8a12.75,12.75,0,0,0-16.87-15.5Z" transform="translate(-0.68 -0.42)"/><path class="cls-1" d="M25.94,32.92l-6.87,6.87A12.75,12.75,0,0,0,2.2,55.29l8-8,7,1.66,1.66,7-8,8A12.75,12.75,0,0,0,26.3,47l6.87-6.87" transform="translate(-0.68 -0.42)"/><path class="cls-1" d="M40.42,32.92,47.29,26a12.75,12.75,0,0,0,16.87-15.5l-8,8-7-1.66-1.66-7,8-8A12.75,12.75,0,0,0,40,18.8l-6.87,6.87" transform="translate(-0.68 -0.42)"/></svg>